<?xml version="1.0" encoding="UTF-8"?>
<svg id="Layer_1" data-name="Layer 1" xmlns="http://www.w3.org/2000/svg" viewBox="0 0 787.22 185.94">
  <defs>
    <style>
      .cls-1 {
        fill: #3d5a80;
      }

      .cls-2 {
        fill: none;
        stroke: #f1f2f2;
        stroke-linecap: round;
        stroke-miterlimit: 10;
        stroke-width: 8.91px;
      }
    </style>
  </defs>
  <g>
    <g>
      <path class="cls-1" d="M250.62,140.93V46.34h74.86v16.22h-57.03v22.57h39.19v16.22h-39.19v23.38h43.78v16.22h-61.62Z"/>
      <path class="cls-1" d="M325.48,140.93V46.34h33.11l16.35,82.43h2.43l16.35-82.43h33.11v94.59h-17.3V59.45h-2.43l-16.22,81.48h-29.46l-16.22-81.48h-2.43v81.48h-17.3Z"/>
      <path class="cls-1" d="M426.82,140.93v-15.68h27.58v-63.24h-12.43v-15.68h48.65c5.76,0,10.79.97,15.07,2.91,4.28,1.94,7.61,4.69,10,8.24,2.39,3.56,3.58,7.82,3.58,12.77v1.35c0,4.32-.81,7.86-2.43,10.61-1.62,2.75-3.54,4.86-5.74,6.35-2.21,1.49-4.3,2.55-6.28,3.18v2.43c1.98.54,4.14,1.55,6.49,3.04,2.34,1.49,4.35,3.63,6.01,6.42,1.67,2.79,2.5,6.44,2.5,10.95v1.35c0,5.23-1.22,9.71-3.65,13.45-2.43,3.74-5.79,6.6-10.07,8.58-4.28,1.98-9.26,2.97-14.93,2.97h-64.33ZM472.24,85.26h16.49c3.69,0,6.73-.95,9.12-2.84,2.39-1.89,3.58-4.5,3.58-7.84v-1.35c0-3.42-1.17-6.06-3.51-7.91-2.34-1.85-5.41-2.77-9.19-2.77h-16.49v22.7ZM472.24,124.72h16.76c3.87,0,7-.95,9.39-2.84,2.39-1.89,3.58-4.59,3.58-8.11v-1.35c0-3.51-1.17-6.22-3.51-8.11-2.34-1.89-5.5-2.84-9.46-2.84h-16.76v23.24Z"/>
      <path class="cls-1" d="M527.1,140.93l24.86-94.59h31.08l24.86,94.59h-18.38l-5.13-20.81h-33.78l-5.13,20.81h-18.38ZM554.8,103.63h25.4l-11.49-46.08h-2.43l-11.49,46.08Z"/>
      <path class="cls-1" d="M619.26,140.93V46.34h41.08c5.95,0,11.12,1.04,15.54,3.11,4.41,2.07,7.84,5,10.27,8.78s3.65,8.24,3.65,13.38v1.62c0,5.68-1.35,10.27-4.05,13.78-2.7,3.51-6.04,6.08-10,7.7v2.43c3.6.18,6.4,1.42,8.38,3.72,1.98,2.3,2.97,5.34,2.97,9.12v30.95h-17.84v-28.38c0-2.16-.56-3.92-1.69-5.27-1.13-1.35-3-2.03-5.61-2.03h-24.87v35.67h-17.84ZM637.1,89.04h21.35c4.23,0,7.54-1.15,9.93-3.45,2.39-2.3,3.58-5.34,3.58-9.12v-1.35c0-3.78-1.17-6.82-3.51-9.12-2.34-2.3-5.68-3.45-10-3.45h-21.35v26.49Z"/>
      <path class="cls-1" d="M704.66,140.93V46.34h17.84v37.57h2.43l30.67-37.57h22.84l-39.46,46.62,40.81,47.97h-23.51l-31.35-38.38h-2.43v38.38h-17.84Z"/>
    </g>
    <rect class="cls-1" x="482.48" y="124.73" width="49.54" height="16.2"/>
    <rect class="cls-1" x="589.44" y="124.74" width="46.16" height="16.2"/>
    <rect class="cls-1" x="660.63" y="46.35" width="61.86" height="16.2"/>
  </g>
  <g>
    <g id="A2GXTG">
      <path class="cls-1" d="M140.71,179.3l-73.68-.23c-7.22-.02-15.45-4.67-19.11-10.96L10.97,104.54c-2.94-7.14-2.96-14.7.01-21.84L47.87,19.15c3.92-6.75,11.75-10.07,19.11-11.18h73.21c7.36,1.05,15.2,4.44,19.11,11.17l36.89,63.55c2.95,7.15,2.97,14.69,0,21.85l-36.87,63.54c-3.82,6.59-11.27,9.81-18.6,11.22Z"/>
    </g>
    <path class="cls-2" d="M66.1,37.98h79.12c2.8,0,5.08,2.27,5.08,5.08v12.55c0,2.8-2.27,5.08-5.08,5.08H52.62c-2.8,0-5.08,2.27-5.08,5.08v12.55c0,2.8,2.27,5.08,5.08,5.08h70.83c2.8,0,5.08,2.27,5.08,5.08v11.66c0,2.8-2.27,5.08-5.08,5.08H52.98c-2.8,0-5.08,2.27-5.08,5.08v12.11c0,2.8,2.27,5.08,5.08,5.08h92.6c2.8,0,5.08,2.27,5.08,5.08v11.66c0,2.8-2.27,5.08-5.08,5.08h-78.05"/>
  </g>
</svg>