<svg xmlns="http://www.w3.org/2000/svg" viewBox="0 0 185.94 185.94">
  <defs>
    <style>
      .cls-1 {
        fill: #3d5a80;
      }
      .cls-2 {
        fill: none;
        stroke: #f1f2f2;
        stroke-linecap: round;
        stroke-miterlimit: 10;
        stroke-width: 8.91px;
      }
    </style>
  </defs>
  <g>
    <path class="cls-1" d="M140.71,179.3l-73.68-.23c-7.22-.02-15.45-4.67-19.11-10.96L10.97,104.54c-2.94-7.14-2.96-14.7.01-21.84L47.87,19.15c3.92-6.75,11.75-10.07,19.11-11.18h73.21c7.36,1.05,15.2,4.44,19.11,11.17l36.89,63.55c2.95,7.15,2.97,14.69,0,21.85l-36.87,63.54c-3.82,6.59-11.27,9.81-18.6,11.22Z"/>
    <path class="cls-2" d="M66.1,37.98h79.12c2.8,0,5.08,2.27,5.08,5.08v12.55c0,2.8-2.27,5.08-5.08,5.08H52.62c-2.8,0-5.08,2.27-5.08,5.08v12.55c0,2.8,2.27,5.08,5.08,5.08h70.83c2.8,0,5.08,2.27,5.08,5.08v11.66c0,2.8-2.27,5.08-5.08,5.08H52.98c-2.8,0-5.08,2.27-5.08,5.08v12.11c0,2.8,2.27,5.08,5.08,5.08h92.6c2.8,0,5.08,2.27,5.08,5.08v11.66c0,2.8-2.27,5.08-5.08,5.08h-78.05"/>
  </g>
</svg>
